# 3ds Max Wavefront OBJ Exporter v0.97b - (c)2007 guruware
# File Created: 07.06.2018 07:18:49

mtllib AttaBoy_Model.mtl

#
# object Box001
#

v  -55.0417 -35.0648 -0.0000
v  -55.0417 35.0648 0.0000
v  55.0417 35.0648 0.0000
v  55.0417 -35.0648 -0.0000
v  -50.6204 -29.8457 6.9787
v  50.6204 -29.8457 6.9787
v  50.6204 29.8457 6.9787
v  -50.6204 29.8457 6.9787
v  55.0417 -35.0648 9.4418
v  -55.0417 -35.0648 9.4418
v  55.0417 35.0648 9.4418
v  -55.0417 35.0648 9.4418
v  50.6204 -29.8457 9.6470
v  -50.6204 -29.8457 9.6470
v  50.6204 29.8457 9.6470
v  -50.6204 29.8457 9.6470
# 16 vertices

vn -0.5774 -0.5774 -0.5774
vn -0.5774 0.5774 -0.5774
vn 0.5774 0.5774 -0.5774
vn 0.5774 -0.5774 -0.5774
vn 0.5774 0.5774 0.5774
vn -0.5774 0.5774 0.5774
vn -0.5774 -0.5774 0.5774
vn 0.5774 -0.5774 0.5774
vn 0.5810 -0.5830 0.5679
vn -0.5810 -0.5830 0.5679
vn 0.5810 0.5830 0.5679
vn -0.5810 0.5830 0.5679
vn -0.2720 0.2903 0.9175
vn 0.2720 0.2903 0.9175
vn -0.2720 -0.2903 0.9175
vn 0.2720 -0.2903 0.9175
# 16 vertex normals

vt 0.0468 -0.0648 0.2502
vt 0.0468 -0.1847 -0.2502
vt 0.1762 -0.1847 -0.2502
vt 0.1762 -0.0648 0.2502
vt 0.0149 0.3741 0.6122
vt 0.9975 0.3741 0.6122
vt 0.9975 0.9760 -0.6122
vt 0.0149 0.9760 -0.6122
vt 0.5434 0.3535 0.2496
vt 0.3595 0.3535 0.2496
vt 0.3595 0.2122 -0.2496
vt 0.5434 0.2122 -0.2496
vt 0.0091 0.3535 -0.2496
vt 0.0091 0.2122 -0.2496
vt 0.9884 0.3535 -0.2496
vt 0.8050 0.3535 -0.2496
vt 0.8050 0.2122 -0.2496
vt 0.9884 0.2122 -0.2496
vt 0.3595 0.0943 -0.2496
vt 0.5434 0.0943 -0.2496
vt 0.0091 0.0943 -0.2496
vt 0.8050 0.0943 -0.2496
vt 0.9884 0.0943 -0.2496
vt 0.3595 0.0117 -0.2496
vt 0.5434 0.0117 -0.2496
vt 0.0091 0.0117 -0.2496
vt 0.8050 0.0117 -0.2496
vt 0.9884 0.0117 -0.2496
# 28 texture coords

o Box001
g Box001
usemtl Material__2
s 2
f 1/1/1 2/2/2 3/3/3 4/4/4 
s 4
f 5/5/5 6/6/6 7/7/7 8/8/8 
s 8
f 1/9/1 4/10/4 9/11/9 10/12/10 
s 16
f 4/10/4 3/13/3 11/14/11 9/11/9 
s 32
f 3/15/3 2/16/2 12/17/12 11/18/11 
s 64
f 2/16/2 1/9/1 10/12/10 12/17/12 
s off
f 10/12/10 9/11/9 13/19/13 14/20/14 
f 9/11/9 11/14/11 15/21/15 13/19/13 
f 11/18/11 12/17/12 16/22/16 15/23/15 
f 12/17/12 10/12/10 14/20/14 16/22/16 
f 14/20/14 13/19/13 6/24/6 5/25/5 
f 13/19/13 15/21/15 7/26/7 6/24/6 
f 15/23/15 16/22/16 8/27/8 7/28/7 
f 16/22/16 14/20/14 5/25/5 8/27/8 
# 14 polygons

